<?xml version="1.0" encoding="utf-8"?>
<!-- Generator: Adobe Illustrator 19.0.0, SVG Export Plug-In . SVG Version: 6.00 Build 0)  -->
<svg version="1.1" id="Layer_1" xmlns="http://www.w3.org/2000/svg" xmlns:xlink="http://www.w3.org/1999/xlink" x="0px" y="0px"
	 viewBox="0 0 4000 2000" style="enable-background:new 0 0 4000 2000;" xml:space="preserve">
<style type="text/css">
	.st0{fill:#FF2020;}
	.st1{fill:#20FF20;}
	.st2{fill:none;}
</style>
<g>
	<g>
		<g>
			<g>
				<path class="st0" d="M1721.3,489.4c-1.6,0.9-3.2,1.7-4.8,2.6c1.7-3.1,5.2-6.6,9.5-10.3c-47.8,29.8-93.5,86.3-117.4,128.2
					c-12.2,11.6-20.1,24.8-17.5,29.6c2.6,4.8,14.5-0.7,26.9-12.4c3.1-2.2,6.4-5,9-6.3c22.8-11.4,47.5-28.4,73.4-48.6
					c-5.5,3.4-11.2,6.9-16.7,10.3c7.5-5.8,15-11.4,22.5-18.8c-1.4,0.1-3.1,0.4-4.6,0.5c27.8-18,57.4-51.2,66.3-74
					c8.9-22.9-6.3-26.9-34-8.8L1721.3,489.4z"/>
				<path class="st0" d="M1657.3,510.9c16.1-11.3,31.9-21.9,47.7-32.5l3.9-1.4l-6.5-4.8l0.1,0.6c-7.6,17.1-26.1,39.3-43.5,59.4
					l-5.9,7.5c-2.5,3.9-3.5,7.2-3,9c1.1,4.3,9.5,1,18.7-7.3l10.6-9.6c27.8-21.3,66.5-59.7,70.6-83c0.9-5.3-4.6-5.4-7.9-7.3
					c-2.8-4.7-15.3,1.3-27.8,13.3c-12.5,12-20.3,25.4-17.4,30c-2.3,1.8-4.7,3.7-7.1,5.5c1.2-2.1,2.4-4.2,3.6-6.3
					c-0.2,6.7-10.7,18.6-17.2,28.7l-11.6,13.4l15.8,1.7l5.3-7.6c-0.9,0.1-2.4,0.5-2.3,0.4c10-14.7,19.2-28.7,31.2-43.8l13.8-20.2
					c3-6.3,0-8.3-6.5-4.8l-9.4,5.7c1.5-0.7,3-1.6,4.5-2.3c-19.4,15.4-38.9,32.6-58.2,47.7c-3.1,2.3-6.1,6-6.7,8.3
					C1651.9,513.5,1654.1,513.3,1657.3,510.9z"/>
				<g>
					<path class="st0" d="M1717.5,448.3c3.5-2.2,6.9-4.2,10.8-8.3c0.6-1.4,0.9-2.1,1-2.4c-1.9,1.1-4.5,2.5-7,4
						C1717.3,444.5,1716.1,447.3,1717.5,448.3z"/>
					<path class="st0" d="M1729.3,437.6c1.8-1,2.9-1.7,2.9-1.7c-0.8,0.2-1.6,0.5-2.4,0.7c-0.4,0.5-0.4,0.5-0.4,0.5
						S1729.5,437.2,1729.3,437.6z"/>
					<path class="st0" d="M985.3,1213.6c-55.7,52-111,104.8-165.9,157.9c-1.8,1.8-3,3.7-2.5,4.3c0.4,0.6,2.3-0.4,3.9-2
						c55.1-53.1,110.1-105.6,165.8-157.6c1.8-1.8,2.9-3.7,2.7-4.4C988.8,1211.2,987.1,1212,985.3,1213.6z"/>
					<path class="st0" d="M528.3,1563.2c0.9-1.7,0.3-2.2-1.5-1.3c-1.5,0.8-3.6,2.8-4.4,4.5c-0.7,1.4,0,2.1,1.5,1.3
						C525.6,1566.8,527.6,1564.7,528.3,1563.2z"/>
					<path class="st0" d="M497.5,1509.3c6.8-8.3,13-16.4,18-24.3c1-1.4,2.4-2.7,3.6-3.5c-1.3-0.4-0.7-2.7,1.7-5.8
						c46.4-60.9,101.2-121.5,154.2-182.2c-0.3-1.1-0.3-2.5,0.4-4.4c1.8-6.1,8.5-15.1,17.1-22.9l6.7-5.6
						c26.2-23.7,52.1-47.6,78.3-71.1c4.1-6.1,9.3-12.6,15.5-19.2c18.8-24.2,37.7-48.3,57.8-72.2c-2,0.8-3.5,0.9-4.3,0.1
						c-1.5-2.3,2.2-8.8,8.3-14.7c3-3.1,5.9-6.1,8.9-9.1c-9.1,8.2-18.2,16.3-27.3,24.4c-1.3,1.2-2.5,2.2-3.7,3.1
						c-9.5,9.4-19,18.9-28.5,28.8c-83,86.3-155.5,173-226.3,260.2c-1,1.6-3.1,3.6-4.7,4.3c-1.2,0.3-1.7-0.4-0.5-2.1
						c40.4-59.2,71.1-114.6,121.2-177.1c59.6-74.4,119.6-146.7,183.5-220.1c71.8-71.8,133.7-142.7,203.6-219.3
						c94.3-103.5,187-197.7,283.4-294.9c34.8-37.7,75.8-63.1,91.5-56.8c9.4,4,7.6,18.5-3,37.7c3-2.9,6-5.8,9-8.7l15.3-12.7
						c14.6-11.9,28.7-20.5,39.5-23.9l14.5-5.2c21.9-4.2,50.4-18,70.3-19.4l1.1,5.9l3.5-1.5c10.9-5.8,19.8-8.1,25.3-6.5l3.4,5
						c3.1,6.6,3.4,15.3,1,26.2c2,1.6,3,4.1,2.9,7.5c10-1.4,17.2,0.4,17.7,9.9c4.7-2.2,5.9,0.2,2.9,5.4c-1.1,1.8-2.5,3.7-4.2,5.5
						c0,0,0.1,0,0.1,0c3-0.8,3.9-1,7.6-2.4c3.8-3,6-4.7,6-4.7c9.8-8.3,9.8-8.3,18.4-15.5c8.3-5.3,14.5-7.4,14.5-7.4
						c15,0,15,0,17.1,4.4c-0.1,0.8-0.3,1.6-0.5,2.4c7.1-4.9,7.6-5.3,9.5-6.5c2.3-1.1,4.1-1.6,4.1-1.6c2,1.5,2,1.5,3.7,1.1
						c1,0.3,1.6,1.1,1.6,1.1c-1.4,5.3-1.4,5.3-1,5.9c-0.3,1.3-0.9,2.8-0.9,2.8c-3.3,4.5-4.7,6.3-5.2,7.1c-12.9,3.9-13,3.9-13,3.9
						c-0.3,3.4-0.3,3.4-0.3,3.4c-4-0.1-4-0.1-4-0.1c3,0.8,3,0.8,3,0.8c-5.4,3.1-5.4,3.1-5.4,3.1c6.5-3.2,6.5-3.2,6.5-3.2
						c-10.8,9.4-10.8,9.4-14.7,13.5c-4.4,4-7.6,8-7.9,8.5c0.9,0.2,1.4,0.6,1.4,0.6c-11.5,10-11.5,10-22.8,19.7
						c-1.4,0.6-2.6,0.9-3.7,1.2c-0.5,1.5-2.2,3.8-4.4,5.8c-1.9,1.7-3.9,3.5-5.8,5.2c-0.3,0.5-0.6,1-0.9,1.4c0.1,0.1,0.2,0.1,0.2,0.1
						c-1.5,2.2-2.6,3.8-3.8,5.5c-0.7,1.1-0.7,1.2-0.7,1.2c0,0-0.1,0-0.1,0c-2.6,3.8-6.3,9.3-16.3,24c-3.5,3-6.8,5.8-10.1,8.3
						c1.2-0.6,2.4-1.3,3.5-1.8c2.3-1.1,2.4,2.1,3.5,1.3c26.6-19.4,53.1-43.1,79.7-65.9c4.2-4.6,9.4-7.8,11.4-7.1
						c2,0.8,0,5.2-4.3,9.9c-41.1,59.1-103.8,119.3-162.4,163.6c-14.4,12.7-28.8,25.5-43.2,38.5c0.9-0.4,1.9-0.8,2.8-1.1
						c-4,3.1-7.9,6.2-11.9,9.3c-0.4,0.4-0.8,0.7-1.2,1.1c3.7-1.7,7.4-3.3,11.1-5c2.2-1.5,4.3-3.1,6.5-4.7
						c32.9-30.4,66.4-54.4,100-82c18.1-14.8,35.1-26,52.8-39.4c4.2-3.8,8-5.5,8.8-3.8c0.7,1.7-2.2,6.2-6.2,10
						c-49.7,54-110.9,111.3-162.9,142.4c-9.5,9.4-19.5,17.7-29,23.4c-0.1,0.1-0.3,0.3-0.5,0.4c2.8-1.1,5.5-2.1,8.4-3.3
						c-7.7,6.4-13.6,8.1-20.9,13.7c1.9,0.4,4,0.7,5.9,1.1c-37.1,32.8-73.9,71.5-111.3,98.9c-1.4,1.2-2.7,2.3-4,3.4
						c-11.5,16.4-23.2,32.8-39.4,49.6c6-5.2,11.8-10.3,17.8-15.5c-10.5,13.5-21.4,26.4-34.4,39.1c-35.1,34.4-79.3,68-106.8,77.2
						c-66.3,68.4-132.8,136.8-197.8,206.2c-3.3,3.6-7.2,6-8.8,5.6c-1.4-0.7-0.1-3.9,3.2-7.6c44.6-51.8,91.6-102.6,139-153.2
						c-42.7,39.2-85.6,78.6-127.9,120.2c-5.2,5.5-10.4,11-15.7,16.6c-5.2,5.5-10.7,10.5-16.4,15.3
						c-53.7,53.6-105.1,103.9-157.2,161.1c-44.5,48.9-83,92.2-126.3,141.9c-60.8,69.8-115.7,133.9-180.3,198.5
						c-8.3,8.9-18.1,14.9-21.8,13.3c-3.7-1.6,0.1-10.2,8.4-19.2c126.5-142.8,248.8-284.8,390.8-424.2c15.3-15,30.4-29.8,45.4-44.5
						c-0.5-0.2-1.1-0.3-1.4-0.7c-1.4-1.4-1.3-4.2-0.1-7.7c-17.2,16.5-34.8,32.9-52.6,49.2c-44.4,50.4-88.9,101-141,150
						c-35.8,33.6-70.4,61.9-105.4,91.2c-39.1,42.3-77.6,85-117.3,127.5c-1.5,1.8-3.4,3.3-4.5,3.3c-1.1,0.1-0.7-1.3,0.7-3.2
						c25-31.5,51.5-63,78.5-94.4c-6.3,3-11.1,3.6-13.1,0.9c-2.1-2.8-0.6-8.5,3.3-15.5c-6.7,6.6-13.3,13.2-20.1,19.7
						c-4.2,4-8.3,6.3-9.4,5c-1.2-1.4,1.1-5.6,5-9.5c27.2-26.9,54.4-53.7,81.5-80.5c31.1-33.7,62.2-67.2,93.7-100.6
						c-6.1,2.9-11.4,4.3-15.2,3.6c0,0,0,0,0,0c-5,5.1-9.9,10.2-14.9,15.2c-84.9,98.4-175.1,196-271,289.3c-1.8,1.9-3.8,3-4.4,2.4
						c-0.6-0.5,0.4-2.4,2.1-4c29-28.2,57.4-56.7,85.3-85.5c-0.1,0-0.1,0.1-0.1,0.1c-1.5,0.8-2.3,0.4-1.5-1.3c0.7-1.4,3-3.7,4.4-4.5
						c1.7-0.9,2.2-0.2,1.5,1.2c52-53.8,102.2-108.7,150.7-163.9c-47.6,48.7-95.4,97.2-144.6,144.3c-4.5,5.9-9.1,11.9-13.7,17.9
						c-1.3,1.6-3.5,3.1-4.6,3.2c-0.9-0.1-0.4-1.7,1-3.3c1.3-1.6,2.6-3.3,3.9-4.9c-9.3,8.9-18.7,13.6-21.4,10.6
						c-2.4-3.5,3.1-13.5,12.7-22.9c24.8-25.9,49.7-51.4,74.8-76.8c2.6-2.9,5.1-5.8,7.7-8.7c2.3-3.2,4.6-6.4,6.9-9.6
						c-40.4,38.1-81,75.9-121.4,113.4c-3.3,3.4-7,5.4-8.1,4.4c-1.1-0.9,0.7-4.5,4.1-7.9c64.5-72.7,131.2-145,199.1-216.7
						c18.5-27.3,37-54.8,56-82.6c-3,2.9-6.1,5.8-9,8.8c-75.9,75.9-127.7,152.8-198.5,228.9c-1.7,2-3.7,3.1-4.4,2.8
						c-0.7-0.3,0-2.1,1.9-4c34.1-37.6,62.5-74.6,95.1-113.2c26.9-32,52.6-62.3,76.7-93c-54.8,57.2-103,116.3-156,174.2
						c-2.2,2.7-4.9,4.9-7,5.9c0.2,0.4-0.1,1.2-0.6,2.1c-5.5,8.3-12.1,16.9-18.9,25.5c-1.2,1.7-3.3,3.4-4.7,3.6
						C495.8,1512.7,496.2,1511.3,497.5,1509.3z M1532,595.9c0.8-0.3,1.4-0.6,2-0.8c-1.8,1.2-3.8,2.4-5.9,3.9c0,0,0,0-11,2.7
						C1517.1,601.6,1524.5,598.7,1532,595.9z M1602.5,494.8C1602.4,494.8,1602.4,494.8,1602.5,494.8c3.6-0.9,6.2-1.5,6.2-1.5
						C1606.1,493.9,1604.1,494.4,1602.5,494.8z M1091.3,1078.6c29.5-29.4,59.6-57.5,91.3-84c-6.9,7.3-13.7,14.6-20.6,22
						C1138.7,1037.4,1115.2,1058,1091.3,1078.6z M1605.3,554.1c-9.9,5.6-18.6,8.9-27.1,11.9c-4.6,5.6-9.7,11.1-15.2,16.4
						c-14.8,14.2-29.5,27.8-44.1,40.9c3.3-0.3-0.2,2.8-1.8,4.7c-1.6,1.9-3.3,3.7-4.9,5.6c15.9-13.8,31.9-27.5,48.3-41.4
						C1575.2,579.6,1590.7,565.5,1605.3,554.1z M1703.2,445c0.6-0.2,1.1-0.4,1.8-0.7c0,0,0,0-0.6,5
						C1704.4,449.2,1703.9,447.4,1703.2,445z M1703.9,436.9c-0.8,0.6-1.6,1.2-2.4,1.8C1701.4,437.1,1702.4,436.7,1703.9,436.9z
						 M1681.6,453.6c1.7-0.6,2.8-0.9,3.9-1.6C1681.6,453.6,1681.6,453.6,1681.6,453.6z M1603.2,402.8l3.4,18.6l-2.3-18.8
						L1603.2,402.8z"/>
				</g>
			</g>
			<g>
				<path class="st0" d="M527.3,338c0.9,1.6,1.7,3.2,2.6,4.8c-3.1-1.7-6.6-5.2-10.3-9.5c29.8,47.8,86.3,93.5,128.2,117.4
					c11.6,12.2,24.8,20.1,29.6,17.5c4.8-2.6-0.7-14.5-12.4-26.9c-2.2-3.1-5-6.4-6.3-9c-11.4-22.8-28.4-47.5-48.6-73.4
					c3.4,5.5,6.9,11.2,10.3,16.7c-5.8-7.5-11.4-15-18.8-22.5c0.1,1.4,0.4,3.1,0.5,4.6c-18-27.8-51.2-57.4-74-66.3
					c-22.9-8.9-26.9,6.3-8.8,34L527.3,338z"/>
				<path class="st0" d="M548.8,402c-11.3-16.1-21.9-31.9-32.5-47.7l-1.4-3.9l-4.8,6.5l0.6-0.1c17.1,7.6,39.3,26.1,59.4,43.5
					l7.5,5.9c3.9,2.5,7.2,3.5,9,3c4.3-1.1,1-9.5-7.3-18.7l-9.6-10.6c-21.3-27.8-59.7-66.5-83-70.6c-5.3-0.9-5.4,4.6-7.3,7.9
					c-4.7,2.8,1.3,15.3,13.3,27.8c12,12.5,25.4,20.3,30,17.4c1.8,2.3,3.7,4.7,5.5,7.1c-2.1-1.2-4.2-2.4-6.3-3.6
					c6.7,0.2,18.6,10.7,28.7,17.2l13.4,11.6l1.7-15.8l-7.6-5.3c0.1,0.9,0.5,2.4,0.4,2.3c-14.7-10-28.7-19.2-43.8-31.2l-20.2-13.8
					c-6.3-3-8.3,0-4.8,6.5l5.7,9.4c-0.7-1.5-1.6-3-2.3-4.5c15.4,19.4,32.6,38.9,47.7,58.2c2.3,3.1,6,6.1,8.3,6.7
					C551.4,407.3,551.2,405.2,548.8,402z"/>
				<g>
					<path class="st0" d="M486.2,341.7c-2.2-3.5-4.2-6.9-8.3-10.8c-1.4-0.6-2.1-0.9-2.4-1c1.1,1.9,2.5,4.5,4,7
						C482.3,342,485.2,343.2,486.2,341.7z"/>
					<path class="st0" d="M475.5,329.9c-1-1.8-1.7-2.9-1.7-2.9c0.2,0.8,0.5,1.6,0.7,2.4c0.5,0.4,0.5,0.4,0.5,0.4
						S475,329.7,475.5,329.9z"/>
					<path class="st0" d="M1251.5,1073.9c52,55.7,104.8,111,157.9,165.9c1.8,1.8,3.7,3,4.3,2.5c0.6-0.4-0.4-2.3-2-3.9
						c-53.1-55.1-105.6-110.1-157.6-165.8c-1.8-1.8-3.7-2.9-4.4-2.7C1249.1,1070.5,1249.9,1072.2,1251.5,1073.9z"/>
					<path class="st0" d="M1601.1,1531c-1.7-0.9-2.2-0.3-1.3,1.5c0.8,1.5,2.8,3.6,4.5,4.4c1.4,0.7,2.1,0,1.3-1.5
						C1604.6,1533.7,1602.5,1531.7,1601.1,1531z"/>
					<path class="st0" d="M1547.2,1561.7c-8.3-6.8-16.4-13-24.3-18c-1.4-1-2.7-2.4-3.5-3.6c-0.4,1.3-2.7,0.7-5.8-1.7
						c-60.9-46.4-121.5-101.2-182.2-154.2c-1.1,0.3-2.5,0.3-4.4-0.4c-6.1-1.8-15.1-8.5-22.9-17.1l-5.6-6.7
						c-23.7-26.2-47.6-52.1-71.1-78.3c-6.1-4.1-12.6-9.3-19.2-15.5c-24.2-18.8-48.3-37.7-72.2-57.8c0.8,2,0.9,3.5,0.1,4.3
						c-2.3,1.5-8.8-2.2-14.7-8.3c-3.1-3-6.1-5.9-9.1-8.9c8.2,9.1,16.3,18.2,24.4,27.3c1.2,1.3,2.2,2.5,3.1,3.7
						c9.4,9.5,18.9,19,28.8,28.5c86.3,83,173,155.5,260.2,226.3c1.6,1,3.6,3.1,4.3,4.7c0.3,1.2-0.4,1.7-2.1,0.5
						c-59.2-40.4-114.6-71.1-177.1-121.2c-74.4-59.6-146.7-119.6-220.1-183.5c-71.8-71.8-142.7-133.7-219.3-203.6
						c-103.5-94.3-197.7-187-294.9-283.4c-37.7-34.8-63.1-75.8-56.8-91.5c4-9.4,18.5-7.6,37.7,3c-2.9-3-5.8-6-8.7-9l-12.7-15.3
						c-11.9-14.6-20.5-28.7-23.9-39.5l-5.2-14.5c-4.2-21.9-18-50.4-19.4-70.3l5.9-1.1l-1.5-3.5c-5.8-10.9-8.1-19.8-6.5-25.3l5-3.4
						c6.6-3.1,15.3-3.4,26.2-1c1.6-2,4.1-3,7.5-2.9c-1.4-10,0.4-17.2,9.9-17.7c-2.2-4.7,0.2-5.9,5.4-2.9c1.8,1.1,3.7,2.5,5.5,4.2
						c0,0,0-0.1,0-0.1c-0.8-3-1-3.9-2.4-7.6c-3-3.8-4.7-6-4.7-6c-8.3-9.8-8.3-9.8-15.5-18.4c-5.3-8.3-7.4-14.5-7.4-14.5
						c0-15,0-15,4.4-17.1c0.8,0.1,1.6,0.3,2.4,0.5c-4.9-7.1-5.3-7.6-6.5-9.5c-1.1-2.3-1.6-4.1-1.6-4.1c1.5-2,1.5-2,1.1-3.7
						c0.3-1,1.1-1.6,1.1-1.6c5.3,1.4,5.3,1.4,5.9,1c1.3,0.3,2.8,0.9,2.8,0.9c4.5,3.3,6.3,4.7,7.1,5.2c3.9,12.9,3.9,13,3.9,13
						c3.4,0.3,3.4,0.3,3.4,0.3c-0.1,4-0.1,4-0.1,4c0.8-3,0.8-3,0.8-3c3.1,5.4,3.1,5.4,3.1,5.4c-3.2-6.5-3.2-6.5-3.2-6.5
						c9.4,10.8,9.4,10.8,13.5,14.7c4,4.4,8,7.6,8.5,7.9c0.2-0.9,0.6-1.4,0.6-1.4c10,11.5,10,11.5,19.7,22.8c0.6,1.4,0.9,2.6,1.2,3.7
						c1.5,0.5,3.8,2.2,5.8,4.4c1.7,1.9,3.5,3.9,5.2,5.8c0.5,0.3,1,0.6,1.4,0.9c0.1-0.1,0.1-0.2,0.1-0.2c2.2,1.5,3.8,2.6,5.5,3.8
						c1.1,0.7,1.2,0.7,1.2,0.7c0,0,0,0.1,0,0.1c3.8,2.6,9.3,6.3,24,16.3c3,3.5,5.8,6.8,8.3,10.1c-0.6-1.2-1.3-2.4-1.8-3.5
						c-1.1-2.3,2.1-2.4,1.3-3.5c-19.4-26.6-43.1-53.1-65.9-79.7c-4.6-4.2-7.8-9.4-7.1-11.4c0.8-2,5.2,0,9.9,4.3
						c59.1,41.1,119.3,103.8,163.6,162.4c12.7,14.4,25.5,28.8,38.5,43.2c-0.4-0.9-0.8-1.9-1.1-2.8c3.1,4,6.2,7.9,9.3,11.9
						c0.4,0.4,0.7,0.8,1.1,1.2c-1.7-3.7-3.3-7.4-5-11.1c-1.5-2.2-3.1-4.3-4.7-6.5c-30.4-32.9-54.4-66.4-82-100
						c-14.8-18.1-26-35.1-39.4-52.8c-3.8-4.2-5.5-8-3.8-8.8c1.7-0.7,6.2,2.2,10,6.2c54,49.7,111.3,110.9,142.4,162.9
						c9.4,9.5,17.7,19.5,23.4,29c0.1,0.1,0.3,0.3,0.4,0.5c-1.1-2.8-2.1-5.5-3.3-8.4c6.4,7.7,8.1,13.6,13.7,20.9
						c0.4-1.9,0.7-4,1.1-5.9c32.8,37.1,71.5,73.9,98.9,111.3c1.2,1.4,2.3,2.7,3.4,4c16.4,11.5,32.8,23.2,49.6,39.4
						c-5.2-6-10.3-11.8-15.5-17.8c13.5,10.5,26.4,21.4,39.1,34.4c34.4,35.1,68,79.3,77.2,106.8c68.4,66.3,136.8,132.8,206.2,197.8
						c3.6,3.3,6,7.2,5.6,8.8c-0.7,1.4-3.9,0.1-7.6-3.2c-51.8-44.6-102.6-91.6-153.2-139c39.2,42.7,78.6,85.6,120.2,127.9
						c5.5,5.2,11,10.4,16.6,15.7c5.5,5.2,10.5,10.7,15.3,16.4c53.6,53.7,103.9,105.1,161.1,157.2c48.9,44.5,92.2,83,141.9,126.3
						c69.8,60.8,133.9,115.7,198.5,180.3c8.9,8.3,14.9,18.1,13.3,21.8c-1.6,3.7-10.2-0.1-19.2-8.4
						c-142.8-126.5-284.8-248.8-424.2-390.8c-15-15.3-29.8-30.4-44.5-45.4c-0.2,0.5-0.3,1.1-0.7,1.4c-1.4,1.4-4.2,1.3-7.7,0.1
						c16.5,17.2,32.9,34.8,49.2,52.6c50.4,44.4,101,88.9,150,141c33.6,35.8,61.9,70.4,91.2,105.4c42.3,39.1,85,77.6,127.5,117.3
						c1.8,1.5,3.3,3.4,3.3,4.5c0.1,1.1-1.3,0.7-3.2-0.7c-31.5-25-63-51.5-94.4-78.5c3,6.3,3.6,11.1,0.9,13.1
						c-2.8,2.1-8.5,0.6-15.5-3.3c6.6,6.7,13.2,13.3,19.7,20.1c4,4.2,6.3,8.3,5,9.4c-1.4,1.2-5.6-1.1-9.5-5
						c-26.9-27.2-53.7-54.4-80.5-81.5c-33.7-31.1-67.2-62.2-100.6-93.7c2.9,6.1,4.3,11.4,3.6,15.2c0,0,0,0,0,0
						c5.1,5,10.2,9.9,15.2,14.9c98.4,84.9,196,175.1,289.3,271c1.9,1.8,3,3.8,2.4,4.4c-0.5,0.6-2.4-0.4-4-2.1
						c-28.2-29-56.7-57.4-85.6-85.3c0,0.1,0.1,0.1,0.1,0.1c0.8,1.5,0.4,2.3-1.3,1.5c-1.4-0.7-3.7-3-4.5-4.4
						c-0.9-1.7-0.2-2.2,1.2-1.5c-53.8-52-108.7-102.2-163.9-150.7c48.7,47.6,97.2,95.4,144.3,144.6c5.9,4.5,11.9,9.1,17.9,13.7
						c1.6,1.3,3.1,3.5,3.2,4.6c-0.1,0.9-1.7,0.4-3.3-1c-1.6-1.3-3.3-2.6-4.9-3.9c8.9,9.3,13.6,18.7,10.6,21.4
						c-3.5,2.4-13.5-3.1-22.9-12.7c-25.9-24.8-51.4-49.7-76.8-74.8c-2.9-2.6-5.8-5.1-8.7-7.7c-3.2-2.3-6.4-4.6-9.6-6.9
						c38.1,40.4,75.9,81,113.4,121.4c3.4,3.3,5.4,7,4.4,8.1c-0.9,1.1-4.5-0.7-7.9-4.1c-72.7-64.5-145-131.2-216.7-199.1
						c-27.3-18.5-54.8-37-82.6-56c2.9,3,5.8,6.1,8.8,9c75.9,75.9,152.8,127.7,228.9,198.5c2,1.7,3.1,3.7,2.8,4.4
						c-0.3,0.7-2.1,0-4-1.9c-37.6-34.1-74.6-62.5-113.2-95.1c-32-26.9-62.3-52.6-93-76.7c57.2,54.8,116.3,103,174.2,156
						c2.7,2.2,4.9,4.9,5.9,7c0.4-0.2,1.2,0.1,2.1,0.6c8.3,5.5,16.9,12.1,25.5,18.9c1.7,1.2,3.4,3.3,3.6,4.7
						C1550.6,1563.4,1549.2,1563.1,1547.2,1561.7z M633.7,527.2c-0.3-0.8-0.6-1.4-0.8-2c1.2,1.8,2.4,3.8,3.9,5.9c0,0,0,0,2.7,11
						C639.5,542.2,636.6,534.7,633.7,527.2z M532.7,456.8C532.7,456.8,532.7,456.8,532.7,456.8c-0.9-3.6-1.5-6.2-1.5-6.2
						C531.8,453.1,532.3,455.1,532.7,456.8z M1116.4,968c-29.4-29.5-57.5-59.6-84-91.3c7.3,6.9,14.6,13.7,22,20.6
						C1075.2,920.5,1095.9,944.1,1116.4,968z M592,454c5.6,9.9,8.9,18.6,11.9,27.1c5.6,4.6,11.1,9.7,16.4,15.2
						c14.2,14.8,27.8,29.5,40.9,44.1c-0.3-3.3,2.8,0.2,4.7,1.8c1.9,1.6,3.7,3.3,5.6,4.9c-13.8-15.9-27.5-31.9-41.4-48.3
						C617.5,484.1,603.3,468.6,592,454z M482.8,356c-0.2-0.6-0.4-1.1-0.7-1.8c0,0,0,0,5,0.6C487.1,354.8,485.3,355.3,482.8,356z
						 M474.8,355.4c0.6,0.8,1.2,1.6,1.8,2.4C475,357.9,474.6,356.9,474.8,355.4z M491.5,377.6c-0.6-1.7-0.9-2.8-1.6-3.9
						C491.5,377.6,491.5,377.6,491.5,377.6z M440.7,456.1l18.6-3.4l-18.8,2.3L440.7,456.1z"/>
				</g>
			</g>
		</g>
		
	</g>
	<rect class="st2" width="4000" height="2000"/>
</g>
</svg>
