<?xml version="1.0" encoding="utf-8"?>
<!-- Generator: Adobe Illustrator 19.0.0, SVG Export Plug-In . SVG Version: 6.00 Build 0)  -->
<svg version="1.1" id="Layer_1" xmlns="http://www.w3.org/2000/svg" xmlns:xlink="http://www.w3.org/1999/xlink" x="0px" y="0px"
	 viewBox="0 0 4000 2000" style="enable-background:new 0 0 4000 2000;" xml:space="preserve">
<style type="text/css">
	.st0{fill:#FF2020;}
	.st1{fill:#20FF20;}
	.st2{fill:none;}
</style>
<g>
	<g>
		<g>
			<path class="st1" d="M2170.5,879.4c1.1,2.1,2,4.1,3,6.2c-3.5-2.7-7.6-7.5-11.8-13.4c35.1,62.2,100.1,128.6,148.1,166.3
				c13.4,16.8,28.5,29.2,33.8,27.4c5.3-1.8-1.3-16.9-14.8-33.9c-2.6-4.1-5.8-8.6-7.4-11.8c-13.6-29-33.6-61.6-57.1-96.3
				c4,7.1,8.1,14.6,12.1,21.7c-6.7-10.1-13.3-20.1-21.9-30.5c0.2,1.7,0.6,3.7,0.8,5.4c-21.2-36.3-59.5-78.5-85.4-94.3
				c-26-15.8-29.9,0.6-8.7,37L2170.5,879.4z"/>
			<path class="st1" d="M2196.9,958.2c-13.3-21.3-25.7-42-38.1-62.7l-1.7-4.8l-5.1,6.3l0.7,0c19.4,13,45.1,39.6,68.3,64.5l8.6,8.6
				c4.5,3.8,8.2,5.8,10.2,5.6c4.8-0.3,0.8-10.7-8.9-23.3l-11.1-14.5c-24.9-37.1-69.4-91.1-95.6-101.5c-6-2.3-5.9,4-7.9,7.2
				c-5.1,2.1,2,17.9,15.9,35.2c13.9,17.3,29.2,29.5,34.2,27.3c2.1,3.1,4.3,6.4,6.4,9.5c-2.4-1.9-4.8-3.8-7.2-5.6
				c7.5,1.9,21.3,16.8,32.8,26.9l15.4,16.6l1.3-17.7l-8.8-8c0.2,1,0.7,2.8,0.5,2.8c-16.9-15.1-32.9-29.1-50.2-46.6l-23.2-20.9
				c-7.1-4.9-9.3-2.1-5.1,6.3l6.7,12.2c-0.9-1.9-1.8-3.8-2.7-5.8c18,26,38,52.7,55.6,78.6c2.7,4.2,6.9,8.5,9.5,9.7
				C2200,965,2199.7,962.5,2196.9,958.2z"/>
			<g>
				<path class="st1" d="M2124.5,873.6c-2.5-4.5-4.9-9-9.7-14.4c-1.5-1-2.3-1.5-2.7-1.8c1.3,2.4,3,5.7,4.8,9
					C2120.2,872.9,2123.5,875,2124.5,873.6z"/>
				<path class="st1" d="M2112,857.4c-1.2-2.3-2-3.8-2-3.8c0.3,1,0.6,2,0.9,2.9c0.6,0.6,0.6,0.6,0.6,0.6S2111.6,857.1,2112,857.4z"
					/>
				<path class="st1" d="M2890.8,953.6c68.8-69.3,137.2-139.5,205.2-209.9c2.3-2.4,3.8-4.8,3.3-5.4c-0.4-0.6-2.6,0.8-4.7,3
					c-68.2,70.4-136.3,140.2-205,209.5c-2.3,2.4-3.7,4.7-3.5,5.5C2886.5,957,2888.6,955.7,2890.8,953.6z"/>
				<path class="st1" d="M3447,473.1c-1.2,2.1-0.5,2.6,1.5,1.2c1.8-1.2,4.3-3.8,5.5-5.9c1-1.8,0.2-2.4-1.5-1.2
					C3450.4,468.6,3447.9,471.4,3447,473.1z"/>
				<path class="st1" d="M3476.2,529.4c-8.6,10.7-16.5,21.1-23,30.9c-1.3,1.8-3,3.5-4.4,4.6c1.4,0.3,0.5,2.9-2.5,6.9
					c-59.2,77.8-127.9,156.8-194.5,235.6c0.3,1.2,0,2.8-0.9,5.1c-2.6,7.3-11.3,18.8-21.9,29.3l-8.2,7.6
					c-32.3,31.7-64.2,63.7-96.5,95.1c-5.3,7.7-11.9,16.1-19.7,24.7c-23.9,31-48,61.9-73.3,92.8c2.3-1.3,4.1-1.7,4.9-0.9
					c1.4,2.4-3.5,10.5-10.9,18.2c-3.7,4-7.4,8-11,12c11.2-10.9,22.4-21.8,33.6-32.7c1.6-1.6,3.1-3,4.6-4.2
					c11.8-12.4,23.6-25,35.5-38c103.4-113.4,194.9-225.4,284.6-337.6c1.3-2,3.9-4.6,5.8-5.7c1.4-0.6,1.9,0.2,0.3,2.3
					c-52.1,74.8-92.9,143.7-156.4,224c-75.6,95.6-151.4,188.9-231.7,284.2c-44.6,47.4-86.3,94.1-127.9,141.5
					c-20.7,23.7-41.5,47.6-62.5,71.7c-10.5,12.1-21.1,24.2-31.7,36.5c-5.3,6.1-10.7,12.3-16.1,18.5c-10.3,11.4-20.6,22.8-31,34.3
					c-65.6,72.3-131.5,144.5-197.5,216.2c-40-47.3-79.9-94.4-119.6-141.3c-36.4-43.2-72.6-86.3-108.9-129.4
					c-40.3-47.7-80.4-95.5-121-144c-43.6-49.2-73.5-102.6-67-119.1c4.1-9.9,20.5-4.2,42.5,12.8c-3.4-4.2-6.7-8.3-10.1-12.5
					l-14.8-20.7c-13.9-19.7-24-38-28.2-51.3l-6.3-17.9c-5.5-26.2-22-62.3-24.3-85.6l6.5,0.2l-1.8-4.4c-6.9-13.9-9.8-24.8-8.2-30.7
					l5.5-2.7c7.3-1.9,17-0.2,29.4,5.3c1.7-1.9,4.5-2.4,8.3-1.5c-1.9-11.9-0.1-19.7,10.5-17.9c-2.6-5.9,0-6.8,5.9-2
					c2,1.6,4.2,3.8,6.3,6.2c0-0.1,0-0.1,0-0.1c-1-3.6-1.3-4.7-2.9-9.4c-3.6-5.1-5.5-8.1-5.5-8.1c-9.7-13.4-9.7-13.4-18-25
					c-6.2-10.8-8.8-18.5-8.8-18.5c-0.5-17.3-0.5-17.3,4.4-18.6c0.9,0.3,1.8,0.7,2.7,1.2c-5.8-9.3-6.2-10-7.7-12.6
					c-1.3-2.9-1.9-5.1-1.9-5.1c1.6-1.9,1.6-1.9,1.1-3.9c0.4-1.1,1.1-1.5,1.1-1.5c6,2.9,6,2.9,6.7,2.6c1.5,0.6,3.2,1.8,3.2,1.8
					c5.2,4.9,7.2,6.9,8.1,7.7c4.8,15.8,4.9,15.9,4.9,15.9c3.8,1.1,3.8,1.1,3.8,1.1c0,4.6,0,4.6,0,4.6c0.8-3.3,0.8-3.3,0.8-3.3
					c3.7,7,3.7,7,3.7,7c-3.8-8.3-3.8-8.3-3.8-8.3c10.9,14.7,10.9,14.7,15.6,20.2c4.6,6.1,9.3,10.6,9.8,11.2c0.2-1,0.7-1.4,0.7-1.4
					c11.7,15.7,11.7,15.7,22.9,31.1c0.7,1.7,1.1,3.2,1.5,4.6c1.7,0.9,4.4,3.5,6.6,6.5c2,2.7,4,5.3,6,8c0.6,0.5,1.1,1,1.7,1.4
					c0.1-0.1,0.1-0.2,0.1-0.2c2.6,2.3,4.3,3.9,6.4,5.7c1.3,1.1,1.3,1.1,1.3,1.1c0,0,0,0.1,0,0.1c4.4,3.9,10.7,9.6,27.5,24.6
					c3.5,4.8,6.7,9.3,9.6,13.6c-0.8-1.5-1.5-3-2.2-4.5c-1.3-2.9,2.3-2.3,1.4-3.7c-22.8-35.3-50.2-71.6-76.7-107.7
					c-5.3-6-9.1-12.7-8.4-14.8c0.8-2.1,5.8,1.2,11.3,7.4c67.8,61.7,137.6,148.6,189.4,226.8c14.7,19.7,29.7,39.3,44.7,59
					c-0.5-1.2-0.9-2.3-1.3-3.5c3.6,5.3,7.3,10.6,10.9,15.9c0.4,0.6,0.8,1.1,1.3,1.7c-2-4.7-4-9.3-6-13.9c-1.8-2.8-3.6-5.7-5.5-8.6
					c-35.3-45.3-63.4-89.7-95.5-135.1c-17.3-24.4-30.4-46.7-46.1-70.4c-4.5-5.7-6.5-10.6-4.6-11.1c1.8-0.4,7.1,4,11.4,9.6
					c62.4,70.4,128.8,154.8,165.5,222.1c10.9,13.3,20.5,26.8,27.3,39c0.1,0.2,0.3,0.4,0.5,0.6c-1.4-3.6-2.6-6.9-4-10.4
					c7.5,10.4,9.6,17.6,16.1,27.4c0.4-2.1,0.6-4.4,1-6.5c9.5,12.7,19.5,25.4,29.5,38.2c5,6.4,10.1,12.8,15.1,19.1l0.9,1.2l0.5,0.6
					l0.1,0.2l0.5,0.7l0.9,1.4l1.9,2.8c5,7.5,9.7,15.4,14.5,26.7c0.4,0.7,0.8,1.4,1.2,2.2c3.7,1.1,6.9,1.7,9.9,3.2
					c2-3.3,3.9-6.2,5.9-8.6c-1.9,1.2-3.7,2.4-5.4,3.4c3.9-7.2,7-12.6,10.7-16.2c5-5,11.1-8.5,19-11.8c0.5-0.2,1-0.4,1.5-0.6l0.4-0.2
					l0.2-0.1c0.1-0.1,0.3-0.3,0.5-0.4l2.1-1.7c2.8-2.3,5.6-4.5,8.3-6.6c5.5-4.3,10.8-8.2,16-11.8c10.2-7.2,19.6-13,27.7-16.9
					c82.5-90,165.4-179.9,246.6-270.7c4.2-4.7,8.8-8.1,10.6-8c1.5,0.5-0.3,4.5-4.5,9.2c-56.2,67.1-114.9,133.5-174.1,199.8
					c52.7-52.3,105.5-105,158-160.1c6.5-7.2,13-14.4,19.6-21.7c6.5-7.2,13.3-13.9,20.3-20.4c66.6-70.7,130.4-137.3,195.7-212
					c55.7-63.8,104-120.1,158.5-184.6c76.5-90.6,145.6-173.6,225.8-258.9c10.3-11.6,22.2-20.3,26.1-19.1c4,1.2-1.3,11.7-11.6,23.4
					c-158.8,185.6-312.7,369.7-488.8,554.2c-19,19.9-37.7,39.5-56.3,58.9c0.6,0.1,1.2,0.2,1.6,0.5c1.5,1.4,1.1,4.5-0.7,8.8
					c21.3-21.9,43-43.8,65-65.6c55.8-65.5,111.7-131.2,176.1-196.5c44.3-44.8,86.5-83.3,129.4-122.9
					c48.9-55.3,97.1-110.9,146.7-166.6c1.8-2.3,4.2-4.3,5.5-4.6c1.3-0.3,0.7,1.4-1.2,3.7c-31.7,40.5-65.2,81.1-99.2,121.9
					c7.4-4.5,13-6.1,15-3.3c2,2.8-0.2,9.6-5.4,18.3l24.9-26.1c5.2-5.3,10.1-8.7,11.2-7.4c1.2,1.4-1.9,6.6-6.7,11.7
					c-33.8,35.5-67.5,71-101.2,106.5c-38.9,44.1-77.8,87.8-117.1,131.6c7.2-4.4,13.4-6.9,17.6-6.8c0,0,0,0,0,0
					c6.2-6.7,12.3-13.4,18.5-20c106.9-127.6,219.6-255.2,338.5-378.8c2.3-2.5,4.6-4.1,5.3-3.5c0.6,0.5-0.7,2.8-2.8,5
					c-35.9,37.3-71.2,75-106,112.9c0.1-0.1,0.1-0.1,0.2-0.1c1.8-1.2,2.7-0.9,1.5,1.2c-1,1.8-3.8,4.7-5.5,5.9c-2,1.4-2.5,0.6-1.5-1.1
					c-64.8,70.7-127.6,142.3-188.5,214.1c59.2-64.1,118.7-128.1,179.6-190.5c5.8-7.6,11.6-15.2,17.5-22.9c1.7-2,4.4-4.2,5.6-4.5
					c1-0.1,0.2,1.9-1.5,3.9c-1.7,2.1-3.3,4.2-5,6.3c11.5-11.8,22.7-18.8,25.4-15.9c2.4,3.5-5,16-16.8,28.4
					c-30.9,34-61.9,67.6-93.1,101.1l-9.6,11.3c-2.9,4.1-5.9,8.1-8.8,12.2c49.9-50.7,100-101.1,149.9-151.1c4.1-4.4,8.5-7.4,9.7-6.5
					c1.1,0.9-1.3,5.3-5.5,9.8c-81,94.6-164.4,189-249.2,283c-23.9,34.5-47.9,69.1-72.3,104.3c3.7-3.8,7.5-7.7,11.2-11.6
					c94.2-100.2,161.2-197.3,249.7-296.8c2.1-2.6,4.5-4.1,5.3-4c0.8,0.2-0.2,2.4-2.6,4.9c-42.7,49-78.9,96.4-120,146.2
					c-34,41.3-66.4,80.6-97,120c68.3-75.1,129.3-151.2,195.7-226.8c2.8-3.4,6-6.4,8.5-7.9c-0.1-0.4,0.2-1.4,1-2.5
					c7.1-10.5,15.5-21.5,24.2-32.5c1.6-2.2,4.1-4.4,5.7-4.9C3478.5,525.3,3477.9,526.9,3476.2,529.4z M2296.7,1123
					c-0.4-1-0.7-1.8-0.9-2.5c1.4,2.4,2.9,4.9,4.5,7.8c0,0,0,0,3.4,13.3C2303.6,1141.6,2300.1,1132.2,2296.7,1123z M2180.7,1017.2
					C2180.8,1017.3,2180.8,1017.3,2180.7,1017.2c-1.1-4.3-2-7.5-2-7.5C2179.6,1012.8,2180.2,1015.2,2180.7,1017.2z M2756.1,1126.8
					c-36.7,38.8-73.8,76.3-112.7,112.2c8.6-9.6,17.1-19.2,25.7-28.8C2697.8,1182.3,2726.8,1154.5,2756.1,1126.8z M2247.2,1028.5
					c6.6,12.8,10.7,23.6,14.3,34.1c6.4,6.7,12.8,13.9,18.9,21.5c16.4,20.5,32.2,40.7,47.4,60.8c-0.5-3.8,3.2,1,5.3,3.2
					c2.2,2.3,4.3,4.7,6.4,7c-16-21.6-32-43.4-48.1-65.6C2276.9,1069.4,2260.5,1048.1,2247.2,1028.5z M2121.2,889.2
					c-0.3-0.8-0.5-1.4-0.9-2.3c0,0,0,0,5.6,1.9C2126,888.9,2123.9,889,2121.2,889.2z M2112.1,886.5c0.7,1,1.4,2.1,2.1,3.2
					C2112.5,889.4,2112,888.2,2112.1,886.5z M2131.7,916.2c-0.7-2.1-1.1-3.4-1.9-4.9C2131.7,916.1,2131.7,916.2,2131.7,916.2z
					 M2077.4,993.8l20.7,0.7l-21.1-2L2077.4,993.8z"/>
			</g>
		</g>
	</g>
	<rect class="st2" width="4000" height="2000"/>
</g>
</svg>
